<svg width="316" height="21" viewBox="0 0 316 21" fill="none" xmlns="http://www.w3.org/2000/svg">
<path d="M25.3129 0.280142V19.946H19.8682V8.15208L14.8693 19.946H10.4754L5.44466 8.12407V19.946H0L0 0.280142L6.43171 0.280142L12.7042 13.895L18.913 0.280142L25.3129 0.280142Z" fill="#002C45"/>
<path d="M43.1424 16.4723H34.8003L33.463 19.946H27.7636L35.851 0.280142L42.1553 0.280142L50.2427 19.946H44.4797L43.1424 16.4723ZM41.7414 12.7744L38.9713 5.57479L36.2331 12.7744H41.7414Z" fill="#002C45"/>
<path d="M69.7386 6.61131C69.7386 7.75055 69.4414 8.79641 68.847 9.74888C68.2527 10.6827 67.3399 11.4391 66.1088 12.018C64.8776 12.597 63.3493 12.8865 61.5238 12.8865H58.1488V19.946H52.7041V0.280142L61.5238 0.280142C63.3069 0.280142 64.814 0.550942 66.0451 1.09255C67.2763 1.63415 68.1996 2.38119 68.8152 3.33367C69.4308 4.28614 69.7386 5.3787 69.7386 6.61131ZM61.1099 9.07655C62.15 9.07655 62.9248 8.86177 63.4342 8.43223C63.9437 8.00268 64.1984 7.39571 64.1984 6.61131C64.1984 5.82692 63.9437 5.21995 63.4342 4.7904C62.9248 4.36085 62.15 4.14608 61.1099 4.14608H58.1488V9.07655H61.1099Z" fill="#002C45"/>
<path d="M78.0177 16.2481H85.1499V19.946H72.5731V0.280142L78.0177 0.280142V16.2481Z" fill="#002C45"/>
<path d="M93.1915 4.11807V8.09606H100.483V11.7939H93.1915V16.1081H101.438V19.946H87.7469V0.280142L101.438 0.280142V4.11807H93.1915Z" fill="#002C45"/>
<path d="M119.808 20.1421C118.173 20.1421 116.709 19.9086 115.414 19.4417C114.119 18.9748 113.079 18.2838 112.293 17.3687C111.529 16.4536 111.126 15.3517 111.083 14.063H116.878C116.963 14.7914 117.25 15.3517 117.738 15.7439C118.226 16.1174 118.863 16.3042 119.648 16.3042C120.455 16.3042 121.092 16.1454 121.559 15.8279C122.026 15.4918 122.259 15.0342 122.259 14.4552C122.259 13.9697 122.068 13.5681 121.686 13.2506C121.325 12.9331 120.869 12.6717 120.317 12.4662C119.786 12.2608 119.022 12.0274 118.025 11.7659C116.581 11.3737 115.403 10.9815 114.49 10.5893C113.578 10.1971 112.792 9.61815 112.134 8.85244C111.476 8.08672 111.147 7.08755 111.147 5.85493C111.147 4.02468 111.901 2.59597 113.408 1.56878C114.915 0.522928 116.878 0 119.298 0C121.761 0 123.745 0.522928 125.252 1.56878C126.759 2.59597 127.566 4.03402 127.672 5.88295H121.782C121.739 5.24796 121.474 4.75305 120.986 4.3982C120.498 4.02468 119.871 3.83792 119.107 3.83792C118.449 3.83792 117.918 3.99667 117.515 4.31416C117.112 4.61298 116.91 5.05187 116.91 5.63082C116.91 6.26581 117.25 6.76072 117.929 7.11557C118.608 7.47041 119.67 7.85327 121.113 8.26414C122.557 8.69369 123.724 9.10456 124.616 9.49676C125.528 9.88895 126.314 10.4586 126.972 11.2056C127.63 11.9527 127.959 12.9145 127.959 14.0911C127.959 15.2116 127.63 16.2295 126.972 17.1446C126.335 18.0597 125.401 18.7881 124.17 19.3297C122.939 19.8713 121.485 20.1421 119.808 20.1421Z" fill="#002C45"/>
<path d="M141.88 20.1421C139.779 20.1421 137.847 19.7125 136.085 18.8534C134.345 17.9943 132.954 16.7991 131.914 15.2676C130.895 13.7175 130.386 11.9807 130.386 10.057C130.386 8.13341 130.895 6.40587 131.914 4.87444C132.954 3.34301 134.345 2.14774 136.085 1.28865C137.847 0.429549 139.779 0 141.88 0C143.982 0 145.903 0.429549 147.643 1.28865C149.405 2.14774 150.785 3.34301 151.783 4.87444C152.801 6.40587 153.311 8.13341 153.311 10.057C153.311 11.9807 152.801 13.7175 151.783 15.2676C150.764 16.7991 149.384 17.9943 147.643 18.8534C145.903 19.7125 143.982 20.1421 141.88 20.1421ZM141.88 15.7719C143.663 15.7719 145.086 15.249 146.147 14.2031C147.229 13.1573 147.771 11.7752 147.771 10.057C147.771 8.32017 147.229 6.93814 146.147 5.91096C145.086 4.8651 143.663 4.34218 141.88 4.34218C140.076 4.34218 138.633 4.85577 137.55 5.88295C136.489 6.91013 135.958 8.30149 135.958 10.057C135.958 11.7939 136.489 13.1853 137.55 14.2311C138.633 15.2583 140.076 15.7719 141.88 15.7719Z" fill="#002C45"/>
<path d="M155.417 10.0851C155.417 8.14275 155.894 6.41521 156.849 4.90246C157.805 3.37102 159.131 2.18509 160.829 1.34467C162.549 0.485575 164.491 0.0560265 166.656 0.0560265C169.309 0.0560265 171.581 0.672338 173.47 1.90495C175.359 3.13757 176.622 4.81842 177.259 6.94748H171.273C170.827 6.12574 170.19 5.50009 169.363 5.07054C168.556 4.64099 167.633 4.42622 166.592 4.42622C164.916 4.42622 163.557 4.93981 162.517 5.96699C161.477 6.99417 160.957 8.36686 160.957 10.0851C160.957 11.8032 161.477 13.1759 162.517 14.2031C163.557 15.2303 164.916 15.7439 166.592 15.7439C167.633 15.7439 168.556 15.5291 169.363 15.0996C170.19 14.67 170.827 14.0444 171.273 13.2226H177.259C176.622 15.3517 175.359 17.0325 173.47 18.2652C171.581 19.4791 169.309 20.0861 166.656 20.0861C164.491 20.0861 162.549 19.6659 160.829 18.8254C159.131 17.9663 157.805 16.7804 156.849 15.2676C155.894 13.7549 155.417 12.0274 155.417 10.0851Z" fill="#002C45"/>
<path d="M186.038 0.280142V19.946H180.593V0.280142H186.038Z" fill="#002C45"/>
<path d="M203.898 16.4723H195.556L194.218 19.946H188.519L196.606 0.280142H202.911L210.998 19.946H205.235L203.898 16.4723ZM202.497 12.7744L199.727 5.57479L196.988 12.7744H202.497Z" fill="#002C45"/>
<path d="M218.904 16.2481H226.036V19.946H213.459V0.280142H218.904V16.2481Z" fill="#002C45"/>
<path d="M234.457 10.0851C234.457 8.14275 234.935 6.41521 235.89 4.90246C236.845 3.37102 238.172 2.18509 239.87 1.34467C241.589 0.485575 243.532 0.0560265 245.697 0.0560265C248.35 0.0560265 250.621 0.672338 252.511 1.90495C254.4 3.13757 255.663 4.81842 256.3 6.94748H250.314C249.868 6.12574 249.231 5.50009 248.403 5.07054C247.597 4.64099 246.673 4.42622 245.633 4.42622C243.956 4.42622 242.598 4.93981 241.558 5.96699C240.517 6.99417 239.997 8.36686 239.997 10.0851C239.997 11.8032 240.517 13.1759 241.558 14.2031C242.598 15.2303 243.956 15.7439 245.633 15.7439C246.673 15.7439 247.597 15.5291 248.403 15.0996C249.231 14.67 249.868 14.0444 250.314 13.2226H256.3C255.663 15.3517 254.4 17.0325 252.511 18.2652C250.621 19.4791 248.35 20.0861 245.697 20.0861C243.532 20.0861 241.589 19.6659 239.87 18.8254C238.172 17.9663 236.845 16.7804 235.89 15.2676C234.935 13.7549 234.457 12.0274 234.457 10.0851Z" fill="#002C45"/>
<path d="M265.078 16.2481H272.211V19.946H259.634V0.280142L265.078 0.280142V16.2481Z" fill="#002C45"/>
<path d="M280.157 0.280142V12.046C280.157 13.2226 280.486 14.1284 281.144 14.7634C281.802 15.3984 282.768 15.7159 284.041 15.7159C285.315 15.7159 286.291 15.3984 286.971 14.7634C287.65 14.1284 287.989 13.2226 287.989 12.046V0.280142L293.434 0.280142V12.018C293.434 13.7736 293.009 15.2583 292.16 16.4723C291.311 17.6862 290.165 18.6013 288.722 19.2176C287.3 19.8339 285.707 20.1421 283.946 20.1421C282.184 20.1421 280.602 19.8433 279.202 19.2456C277.822 18.6293 276.729 17.7142 275.922 16.5003C275.115 15.2676 274.712 13.7736 274.712 12.018V0.280142L280.157 0.280142Z" fill="#002C45"/>
<path d="M310.789 9.86094C312.084 10.1037 313.124 10.6733 313.91 11.5698C314.695 12.4476 315.088 13.4561 315.088 14.5953C315.088 16.2388 314.43 17.5461 313.114 18.5173C311.819 19.4698 310.004 19.946 307.669 19.946H297.257V0.280142L307.319 0.280142C309.59 0.280142 311.363 0.737702 312.636 1.65283C313.931 2.56795 314.578 3.80991 314.578 5.37869C314.578 6.53661 314.228 7.49843 313.528 8.26414C312.848 9.02986 311.936 9.56212 310.789 9.86094ZM302.702 8.23612H306.268C307.16 8.23612 307.839 8.06804 308.306 7.73187C308.794 7.37703 309.038 6.86344 309.038 6.1911C309.038 5.51876 308.794 5.00517 308.306 4.65033C307.839 4.29549 307.16 4.11807 306.268 4.11807H302.702V8.23612ZM306.714 16.0801C307.627 16.0801 308.327 15.9026 308.815 15.5478C309.325 15.1743 309.579 14.642 309.579 13.951C309.579 13.26 309.314 12.7184 308.783 12.3262C308.274 11.934 307.563 11.7379 306.65 11.7379H302.702V16.0801H306.714Z" fill="#002C45"/>
</svg>
