<svg width="438" height="123" viewBox="0 0 438 123" fill="none" xmlns="http://www.w3.org/2000/svg">
<rect x="1.5" y="1.5" width="435" height="120" rx="8.5" fill="#F4F49D" stroke="#002C45" stroke-width="3"/>
<g filter="url(#filter0_n_1611_1005)">
<rect x="17" y="64" width="405" height="46" rx="6" fill="#FF91C6"/>
</g>
<rect x="17.5" y="14.5" width="65" height="45" rx="5.5" fill="#E2579A" stroke="#002C45"/>
<path d="M44.5644 46.4906L44.5073 26.6098L61.0661 36.5027L44.5644 46.4906Z" fill="#FF91C6" stroke="#002C45"/>
<rect x="17.5" y="64.5" width="164" height="45" rx="5.5" fill="#E2579A" stroke="#002C45"/>
<rect x="88.5" y="14.5" width="65" height="45" rx="5.5" fill="#E2579A" stroke="#002C45"/>
<rect x="159.5" y="14.5" width="65" height="45" rx="5.5" fill="#E2579A" stroke="#002C45"/>
<path d="M177.564 46.4906L177.507 26.6098L194.066 36.5027L177.564 46.4906Z" fill="#FF91C6" stroke="#002C45"/>
<path d="M188.564 46.4906L188.507 26.6098L205.066 36.5027L188.564 46.4906Z" fill="#FF91C6" stroke="#002C45"/>
<rect x="114.5" y="26.5" width="4" height="21" fill="#FF91C6" stroke="#002C45"/>
<rect x="57.5" y="81.5" width="3" height="11" fill="#FF91C6" stroke="#002C45"/>
<rect x="62.5" y="78.5" width="3" height="17" fill="#FF91C6" stroke="#002C45"/>
<rect x="124.5" y="26.5" width="4" height="21" fill="#FF91C6" stroke="#002C45"/>
<rect x="201.5" y="26.5" width="4" height="21" fill="#FF91C6" stroke="#002C45"/>
<path d="M242.37 28.3496C242.986 28.4643 243.508 28.7774 243.936 29.2887C244.363 29.8 244.577 30.3948 244.577 31.073C244.577 31.6261 244.437 32.127 244.155 32.5757C243.883 33.0139 243.482 33.3635 242.95 33.6243C242.417 33.8748 241.781 34 241.04 34H237.252V23.0591H240.93C242.037 23.0591 242.877 23.3148 243.45 23.8261C244.035 24.3374 244.327 25 244.327 25.8139C244.327 26.4922 244.144 27.0452 243.779 27.473C243.414 27.8904 242.944 28.1826 242.37 28.3496ZM238.348 27.8957H240.899C241.64 27.8957 242.209 27.7235 242.605 27.3791C243.012 27.0243 243.216 26.5391 243.216 25.9235C243.216 25.3183 243.012 24.8435 242.605 24.4991C242.209 24.1548 241.624 23.9826 240.852 23.9826H238.348V27.8957ZM240.962 33.0765C241.755 33.0765 242.37 32.8887 242.809 32.513C243.257 32.1374 243.482 31.6209 243.482 30.9635C243.482 30.3061 243.247 29.7843 242.777 29.3983C242.318 29.0017 241.697 28.8035 240.915 28.8035H238.348V33.0765H240.962ZM246.983 23.9513V28.0365H251.131V28.9443H246.983V33.0922H251.6V34H245.887V23.0435H251.6V23.9513H246.983ZM263.877 23.0591L260.371 29.7426V34H259.275V29.7426L255.738 23.0591H256.974L259.823 28.7409L262.656 23.0591H263.877ZM269.691 34.1096C268.679 34.1096 267.761 33.8748 266.936 33.4052C266.112 32.9252 265.46 32.2626 264.98 31.4174C264.51 30.5617 264.275 29.5965 264.275 28.5217C264.275 27.447 264.51 26.487 264.98 25.6417C265.46 24.7861 266.112 24.1235 266.936 23.6539C267.761 23.1739 268.679 22.9339 269.691 22.9339C270.714 22.9339 271.637 23.1739 272.461 23.6539C273.286 24.1235 273.933 24.7861 274.402 25.6417C274.872 26.487 275.107 27.447 275.107 28.5217C275.107 29.5965 274.872 30.5617 274.402 31.4174C273.933 32.2626 273.286 32.9252 272.461 33.4052C271.637 33.8748 270.714 34.1096 269.691 34.1096ZM269.691 33.1548C270.505 33.1548 271.235 32.967 271.882 32.5913C272.529 32.2157 273.041 31.6783 273.416 30.9791C273.792 30.2696 273.98 29.4504 273.98 28.5217C273.98 27.593 273.792 26.7791 273.416 26.08C273.041 25.3809 272.529 24.8435 271.882 24.4678C271.235 24.0922 270.505 23.9043 269.691 23.9043C268.877 23.9043 268.147 24.0922 267.5 24.4678C266.853 24.8435 266.341 25.3809 265.966 26.08C265.59 26.7791 265.402 27.593 265.402 28.5217C265.402 29.4504 265.59 30.2696 265.966 30.9791C266.341 31.6783 266.853 32.2157 267.5 32.5913C268.147 32.967 268.877 33.1548 269.691 33.1548ZM277.456 23.0591V29.9461C277.456 31.0313 277.711 31.8348 278.223 32.3565C278.744 32.8783 279.454 33.1391 280.351 33.1391C281.249 33.1391 281.948 32.8835 282.449 32.3722C282.96 31.8504 283.216 31.0417 283.216 29.9461V23.0591H284.311V29.9304C284.311 31.3183 283.941 32.3617 283.2 33.0609C282.47 33.76 281.515 34.1096 280.336 34.1096C279.157 34.1096 278.197 33.76 277.456 33.0609C276.725 32.3617 276.36 31.3183 276.36 29.9304V23.0591H277.456ZM294.3 34H293.204L287.147 24.7965V34H286.051V23.0591H287.147L293.204 32.247V23.0591H294.3V34ZM304.686 26.2522C304.372 25.5322 303.892 24.9687 303.246 24.5617C302.609 24.1443 301.858 23.9357 300.992 23.9357C300.178 23.9357 299.447 24.1235 298.8 24.4991C298.153 24.8748 297.642 25.4122 297.266 26.1113C296.891 26.8 296.703 27.6035 296.703 28.5217C296.703 29.44 296.891 30.2487 297.266 30.9478C297.642 31.647 298.153 32.1843 298.8 32.56C299.447 32.9357 300.178 33.1235 300.992 33.1235C301.753 33.1235 302.437 32.9617 303.042 32.6383C303.658 32.3043 304.148 31.8348 304.513 31.2296C304.889 30.6139 305.103 29.8991 305.155 29.0852H300.553V28.193H306.313V28.9913C306.261 29.9513 306 30.8226 305.531 31.6052C305.061 32.3774 304.43 32.9878 303.637 33.4365C302.854 33.8852 301.972 34.1096 300.992 34.1096C299.979 34.1096 299.061 33.8748 298.237 33.4052C297.412 32.9252 296.76 32.2626 296.28 31.4174C295.811 30.5617 295.576 29.5965 295.576 28.5217C295.576 27.447 295.811 26.487 296.28 25.6417C296.76 24.7861 297.412 24.1235 298.237 23.6539C299.061 23.1739 299.979 22.9339 300.992 22.9339C302.16 22.9339 303.183 23.2261 304.059 23.8104C304.936 24.3948 305.572 25.2087 305.969 26.2522H304.686ZM308.618 32.1843L306.99 36.2852H306.239L307.397 32.1843H308.618ZM318.326 28.3496C318.942 28.4643 319.464 28.7774 319.891 29.2887C320.319 29.8 320.533 30.3948 320.533 31.073C320.533 31.6261 320.392 32.127 320.111 32.5757C319.839 33.0139 319.438 33.3635 318.905 33.6243C318.373 33.8748 317.737 34 316.996 34H313.208V23.0591H316.886C317.992 23.0591 318.832 23.3148 319.406 23.8261C319.991 24.3374 320.283 25 320.283 25.8139C320.283 26.4922 320.1 27.0452 319.735 27.473C319.37 27.8904 318.9 28.1826 318.326 28.3496ZM314.304 27.8957H316.855C317.596 27.8957 318.165 27.7235 318.561 27.3791C318.968 27.0243 319.171 26.5391 319.171 25.9235C319.171 25.3183 318.968 24.8435 318.561 24.4991C318.165 24.1548 317.58 23.9826 316.808 23.9826H314.304V27.8957ZM316.918 33.0765C317.711 33.0765 318.326 32.8887 318.765 32.513C319.213 32.1374 319.438 31.6209 319.438 30.9635C319.438 30.3061 319.203 29.7843 318.733 29.3983C318.274 29.0017 317.653 28.8035 316.871 28.8035H314.304V33.0765H316.918ZM322.939 23.9513V28.0365H327.086V28.9443H322.939V33.0922H327.556V34H321.843V23.0435H327.556V23.9513H322.939ZM338.518 23.0591V23.967H333.697V28.0522H337.767V28.96H333.697V34H332.601V23.0591H338.518ZM344.531 34.1096C343.519 34.1096 342.601 33.8748 341.776 33.4052C340.952 32.9252 340.3 32.2626 339.82 31.4174C339.35 30.5617 339.115 29.5965 339.115 28.5217C339.115 27.447 339.35 26.487 339.82 25.6417C340.3 24.7861 340.952 24.1235 341.776 23.6539C342.601 23.1739 343.519 22.9339 344.531 22.9339C345.554 22.9339 346.477 23.1739 347.301 23.6539C348.126 24.1235 348.773 24.7861 349.242 25.6417C349.712 26.487 349.947 27.447 349.947 28.5217C349.947 29.5965 349.712 30.5617 349.242 31.4174C348.773 32.2626 348.126 32.9252 347.301 33.4052C346.477 33.8748 345.554 34.1096 344.531 34.1096ZM344.531 33.1548C345.345 33.1548 346.075 32.967 346.722 32.5913C347.369 32.2157 347.881 31.6783 348.256 30.9791C348.632 30.2696 348.82 29.4504 348.82 28.5217C348.82 27.593 348.632 26.7791 348.256 26.08C347.881 25.3809 347.369 24.8435 346.722 24.4678C346.075 24.0922 345.345 23.9043 344.531 23.9043C343.717 23.9043 342.987 24.0922 342.34 24.4678C341.693 24.8435 341.181 25.3809 340.806 26.08C340.43 26.7791 340.242 27.593 340.242 28.5217C340.242 29.4504 340.43 30.2696 340.806 30.9791C341.181 31.6783 341.693 32.2157 342.34 32.5913C342.987 32.967 343.717 33.1548 344.531 33.1548ZM356.162 34.1096C355.15 34.1096 354.231 33.8748 353.407 33.4052C352.583 32.9252 351.931 32.2626 351.451 31.4174C350.981 30.5617 350.746 29.5965 350.746 28.5217C350.746 27.447 350.981 26.487 351.451 25.6417C351.931 24.7861 352.583 24.1235 353.407 23.6539C354.231 23.1739 355.15 22.9339 356.162 22.9339C357.184 22.9339 358.108 23.1739 358.932 23.6539C359.757 24.1235 360.404 24.7861 360.873 25.6417C361.343 26.487 361.578 27.447 361.578 28.5217C361.578 29.5965 361.343 30.5617 360.873 31.4174C360.404 32.2626 359.757 32.9252 358.932 33.4052C358.108 33.8748 357.184 34.1096 356.162 34.1096ZM356.162 33.1548C356.976 33.1548 357.706 32.967 358.353 32.5913C359 32.2157 359.511 31.6783 359.887 30.9791C360.263 30.2696 360.451 29.4504 360.451 28.5217C360.451 27.593 360.263 26.7791 359.887 26.08C359.511 25.3809 359 24.8435 358.353 24.4678C357.706 24.0922 356.976 23.9043 356.162 23.9043C355.348 23.9043 354.618 24.0922 353.971 24.4678C353.324 24.8435 352.812 25.3809 352.437 26.08C352.061 26.7791 351.873 27.593 351.873 28.5217C351.873 29.4504 352.061 30.2696 352.437 30.9791C352.812 31.6783 353.324 32.2157 353.971 32.5913C354.618 32.967 355.348 33.1548 356.162 33.1548ZM363.974 33.1078H367.902V34H362.878V23.0591H363.974V33.1078ZM369.857 23.0591V34H368.762V23.0591H369.857ZM374.952 34.1096C374.232 34.1096 373.596 33.9843 373.043 33.7339C372.5 33.4835 372.072 33.1339 371.759 32.6852C371.446 32.2365 371.279 31.7357 371.258 31.1826H372.417C372.469 31.7148 372.704 32.1843 373.121 32.5913C373.538 32.9878 374.149 33.1861 374.952 33.1861C375.693 33.1861 376.278 32.9983 376.705 32.6226C377.144 32.2365 377.363 31.7513 377.363 31.167C377.363 30.6974 377.243 30.3217 377.003 30.04C376.763 29.7478 376.465 29.5339 376.111 29.3983C375.756 29.2522 375.265 29.0957 374.639 28.9287C373.909 28.7304 373.33 28.5374 372.902 28.3496C372.474 28.1617 372.109 27.8696 371.806 27.473C371.504 27.0765 371.352 26.5391 371.352 25.8609C371.352 25.2974 371.498 24.7965 371.791 24.3583C372.083 23.9096 372.495 23.56 373.027 23.3096C373.559 23.0591 374.17 22.9339 374.858 22.9339C375.871 22.9339 376.684 23.1843 377.3 23.6852C377.926 24.1757 378.286 24.8122 378.38 25.5948H377.191C377.118 25.1461 376.872 24.7496 376.455 24.4052C376.038 24.0504 375.474 23.873 374.764 23.873C374.107 23.873 373.559 24.0504 373.121 24.4052C372.683 24.7496 372.464 25.2243 372.464 25.8296C372.464 26.2887 372.584 26.6591 372.824 26.9409C373.064 27.2226 373.361 27.4365 373.716 27.5826C374.081 27.7287 374.571 27.8852 375.187 28.0522C375.897 28.2504 376.471 28.4487 376.909 28.647C377.347 28.8348 377.718 29.127 378.02 29.5235C378.323 29.92 378.474 30.4522 378.474 31.12C378.474 31.6313 378.338 32.1165 378.067 32.5757C377.796 33.0348 377.394 33.4052 376.862 33.687C376.33 33.9687 375.693 34.1096 374.952 34.1096ZM388.01 23.0591V34H386.915V28.8817H380.983V34H379.887V23.0591H380.983V27.9739H386.915V23.0591H388.01ZM390.808 32.1843L389.18 36.2852H388.428L389.587 32.1843H390.808ZM242.37 47.3496C242.986 47.4643 243.508 47.7774 243.936 48.2887C244.363 48.8 244.577 49.3948 244.577 50.073C244.577 50.6261 244.437 51.127 244.155 51.5757C243.883 52.0139 243.482 52.3635 242.95 52.6243C242.417 52.8748 241.781 53 241.04 53H237.252V42.0591H240.93C242.037 42.0591 242.877 42.3148 243.45 42.8261C244.035 43.3374 244.327 44 244.327 44.8139C244.327 45.4922 244.144 46.0452 243.779 46.473C243.414 46.8904 242.944 47.1826 242.37 47.3496ZM238.348 46.8957H240.899C241.64 46.8957 242.209 46.7235 242.605 46.3791C243.012 46.0243 243.216 45.5391 243.216 44.9235C243.216 44.3183 243.012 43.8435 242.605 43.4991C242.209 43.1548 241.624 42.9826 240.852 42.9826H238.348V46.8957ZM240.962 52.0765C241.755 52.0765 242.37 51.8887 242.809 51.513C243.257 51.1374 243.482 50.6209 243.482 49.9635C243.482 49.3061 243.247 48.7843 242.777 48.3983C242.318 48.0017 241.697 47.8035 240.915 47.8035H238.348V52.0765H240.962ZM246.936 42.0591V48.9461C246.936 50.0313 247.192 50.8348 247.703 51.3565C248.225 51.8783 248.934 52.1391 249.832 52.1391C250.729 52.1391 251.428 51.8835 251.929 51.3722C252.44 50.8504 252.696 50.0417 252.696 48.9461V42.0591H253.792V48.9304C253.792 50.3183 253.421 51.3617 252.68 52.0609C251.95 52.76 250.995 53.1096 249.816 53.1096C248.637 53.1096 247.677 52.76 246.936 52.0609C246.205 51.3617 245.84 50.3183 245.84 48.9304V42.0591H246.936ZM261.933 42.0591V42.967H258.896V53H257.801V42.967H254.748V42.0591H261.933ZM271.668 47.3496C272.283 47.4643 272.805 47.7774 273.233 48.2887C273.661 48.8 273.874 49.3948 273.874 50.073C273.874 50.6261 273.734 51.127 273.452 51.5757C273.181 52.0139 272.779 52.3635 272.247 52.6243C271.714 52.8748 271.078 53 270.337 53H266.549V42.0591H270.228C271.334 42.0591 272.174 42.3148 272.748 42.8261C273.332 43.3374 273.624 44 273.624 44.8139C273.624 45.4922 273.441 46.0452 273.076 46.473C272.711 46.8904 272.241 47.1826 271.668 47.3496ZM267.645 46.8957H270.196C270.937 46.8957 271.506 46.7235 271.902 46.3791C272.309 46.0243 272.513 45.5391 272.513 44.9235C272.513 44.3183 272.309 43.8435 271.902 43.4991C271.506 43.1548 270.921 42.9826 270.149 42.9826H267.645V46.8957ZM270.259 52.0765C271.052 52.0765 271.668 51.8887 272.106 51.513C272.554 51.1374 272.779 50.6209 272.779 49.9635C272.779 49.3061 272.544 48.7843 272.074 48.3983C271.615 48.0017 270.994 47.8035 270.212 47.8035H267.645V52.0765H270.259ZM276.28 42.9513V47.0365H280.428V47.9443H276.28V52.0922H280.897V53H275.184V42.0435H280.897V42.9513H276.28ZM294.066 42.0591V53H292.97V47.8817H287.038V53H285.943V42.0591H287.038V46.9739H292.97V42.0591H294.066ZM302.201 50.4017H297.223L296.269 53H295.11L299.102 42.2H300.338L304.314 53H303.156L302.201 50.4017ZM301.872 49.4939L299.712 43.5774L297.552 49.4939H301.872ZM312.364 45.2052C312.364 46.1443 312.057 46.9009 311.441 47.4748C310.825 48.0487 309.902 48.3357 308.67 48.3357H306.464V53H305.368V42.0591H308.67C309.891 42.0591 310.81 42.3461 311.425 42.92C312.051 43.4939 312.364 44.2557 312.364 45.2052ZM308.67 47.3965C310.382 47.3965 311.237 46.6661 311.237 45.2052C311.237 44.4748 311.034 43.9217 310.627 43.5461C310.22 43.1704 309.568 42.9826 308.67 42.9826H306.464V47.3965H308.67ZM320.495 45.2052C320.495 46.1443 320.187 46.9009 319.571 47.4748C318.956 48.0487 318.032 48.3357 316.801 48.3357H314.594V53H313.498V42.0591H316.801C318.022 42.0591 318.94 42.3461 319.556 42.92C320.182 43.4939 320.495 44.2557 320.495 45.2052ZM316.801 47.3965C318.512 47.3965 319.368 46.6661 319.368 45.2052C319.368 44.4748 319.165 43.9217 318.758 43.5461C318.351 43.1704 317.698 42.9826 316.801 42.9826H314.594V47.3965H316.801ZM328.86 42.0591L325.354 48.7426V53H324.259V48.7426L320.721 42.0591H321.958L324.806 47.7409L327.639 42.0591H328.86ZM338.656 46.7391V47.6626H332.568V46.7391H338.656ZM350.755 42.0591V42.967H347.719V53H346.623V42.967H343.571V42.0591H350.755ZM355.85 44.2974C356.497 44.2974 357.076 44.433 357.588 44.7043C358.11 44.9757 358.516 45.393 358.809 45.9565C359.111 46.5096 359.263 47.1878 359.263 47.9913V53H358.183V48.1165C358.183 47.1878 357.948 46.4783 357.478 45.9878C357.019 45.4974 356.388 45.2522 355.584 45.2522C354.76 45.2522 354.103 45.513 353.612 46.0348C353.122 46.5565 352.876 47.3235 352.876 48.3357V53H351.781V41.4174H352.876V45.9096C353.148 45.3983 353.544 45.0017 354.066 44.72C354.598 44.4383 355.193 44.2974 355.85 44.2974ZM368.714 48.2887C368.714 48.6643 368.703 48.9513 368.682 49.1496H361.592C361.623 49.7965 361.78 50.3496 362.061 50.8087C362.343 51.2678 362.714 51.6174 363.173 51.8574C363.632 52.087 364.133 52.2017 364.675 52.2017C365.385 52.2017 365.98 52.0296 366.46 51.6852C366.95 51.3409 367.274 50.8765 367.43 50.2922H368.588C368.38 51.127 367.931 51.8104 367.242 52.3426C366.564 52.8643 365.708 53.1252 364.675 53.1252C363.872 53.1252 363.152 52.9478 362.515 52.593C361.879 52.2278 361.378 51.7165 361.013 51.0591C360.658 50.3913 360.481 49.6139 360.481 48.727C360.481 47.84 360.658 47.0626 361.013 46.3948C361.367 45.727 361.863 45.2157 362.5 44.8609C363.136 44.5061 363.861 44.3287 364.675 44.3287C365.489 44.3287 366.199 44.5061 366.804 44.8609C367.42 45.2157 367.889 45.6957 368.213 46.3009C368.547 46.8957 368.714 47.5583 368.714 48.2887ZM367.602 48.2574C367.613 47.6209 367.482 47.0783 367.211 46.6296C366.95 46.1809 366.59 45.8417 366.131 45.6122C365.672 45.3826 365.171 45.2678 364.628 45.2678C363.814 45.2678 363.121 45.5287 362.547 46.0504C361.973 46.5722 361.654 47.3078 361.592 48.2574H367.602ZM380.006 42.0591V42.967H376.97V53H375.874V42.967H372.822V42.0591H380.006ZM380.531 48.7113C380.531 47.8348 380.703 47.0678 381.048 46.4104C381.403 45.7426 381.888 45.2313 382.503 44.8765C383.129 44.5113 383.834 44.3287 384.616 44.3287C385.43 44.3287 386.129 44.5165 386.714 44.8922C387.309 45.2678 387.736 45.7478 387.997 46.3322V44.4539H389.093V53H387.997V51.1061C387.726 51.6904 387.293 52.1757 386.698 52.5617C386.114 52.9374 385.415 53.1252 384.601 53.1252C383.829 53.1252 383.129 52.9426 382.503 52.5774C381.888 52.2122 381.403 51.6957 381.048 51.0278C380.703 50.36 380.531 49.5878 380.531 48.7113ZM387.997 48.727C387.997 48.0383 387.856 47.433 387.575 46.9113C387.293 46.3896 386.907 45.9878 386.416 45.7061C385.936 45.4243 385.404 45.2835 384.82 45.2835C384.215 45.2835 383.672 45.4191 383.192 45.6904C382.712 45.9617 382.331 46.3583 382.049 46.88C381.778 47.3913 381.643 48.0017 381.643 48.7113C381.643 49.4104 381.778 50.0261 382.049 50.5583C382.331 51.08 382.712 51.4817 383.192 51.7635C383.672 52.0348 384.215 52.1704 384.82 52.1704C385.404 52.1704 385.936 52.0296 386.416 51.7478C386.907 51.4661 387.293 51.0643 387.575 50.5426C387.856 50.0209 387.997 49.4157 387.997 48.727ZM401.064 44.2974C402.066 44.2974 402.879 44.6157 403.506 45.2522C404.142 45.8783 404.46 46.7913 404.46 47.9913V53H403.38V48.1165C403.38 47.1878 403.156 46.4783 402.707 45.9878C402.259 45.4974 401.648 45.2522 400.876 45.2522C400.072 45.2522 399.431 45.5183 398.951 46.0504C398.471 46.5826 398.231 47.3548 398.231 48.367V53H397.151V48.1165C397.151 47.1878 396.926 46.4783 396.478 45.9878C396.029 45.4974 395.413 45.2522 394.631 45.2522C393.827 45.2522 393.186 45.5183 392.706 46.0504C392.226 46.5826 391.986 47.3548 391.986 48.367V53H390.89V44.4539H391.986V45.9252C392.257 45.393 392.643 44.9913 393.144 44.72C393.645 44.4383 394.203 44.2974 394.819 44.2974C395.559 44.2974 396.206 44.4748 396.759 44.8296C397.323 45.1843 397.73 45.7061 397.98 46.3948C398.21 45.7165 398.601 45.2 399.154 44.8452C399.718 44.48 400.354 44.2974 401.064 44.2974ZM409.132 53.1252C408.151 53.1252 407.348 52.9009 406.721 52.4522C406.106 51.993 405.761 51.3722 405.688 50.5896H406.815C406.868 51.0696 407.092 51.4609 407.488 51.7635C407.895 52.0557 408.438 52.2017 409.116 52.2017C409.711 52.2017 410.175 52.0609 410.509 51.7791C410.854 51.4974 411.026 51.1478 411.026 50.7304C411.026 50.4383 410.932 50.1983 410.744 50.0104C410.556 49.8226 410.316 49.6765 410.024 49.5722C409.742 49.4574 409.356 49.3374 408.866 49.2122C408.229 49.0452 407.713 48.8783 407.316 48.7113C406.92 48.5443 406.581 48.2991 406.299 47.9757C406.028 47.6417 405.892 47.1983 405.892 46.6452C405.892 46.2278 406.017 45.8417 406.268 45.487C406.518 45.1322 406.873 44.8504 407.332 44.6417C407.791 44.433 408.313 44.3287 408.897 44.3287C409.815 44.3287 410.556 44.5635 411.12 45.033C411.683 45.4922 411.986 46.1287 412.028 46.9426H410.932C410.901 46.4417 410.702 46.04 410.337 45.7374C409.982 45.4243 409.492 45.2678 408.866 45.2678C408.313 45.2678 407.864 45.3983 407.52 45.6591C407.175 45.92 407.003 46.2435 407.003 46.6296C407.003 46.9635 407.102 47.24 407.301 47.4591C407.509 47.6678 407.765 47.8348 408.068 47.96C408.37 48.0748 408.777 48.2052 409.288 48.3513C409.904 48.5183 410.394 48.68 410.76 48.8365C411.125 48.993 411.438 49.2226 411.699 49.5252C411.96 49.8278 412.095 50.2296 412.106 50.7304C412.106 51.1896 411.981 51.6017 411.73 51.967C411.48 52.3217 411.13 52.6035 410.681 52.8122C410.233 53.0209 409.716 53.1252 409.132 53.1252Z" fill="#002C45"/>
<path d="M45 90.5217V83.4783H48.913L55.1739 78V96L48.913 90.5217H45Z" fill="#FF91C6" stroke="#002C45"/>
<defs>
<filter id="filter0_n_1611_1005" x="17" y="64" width="405" height="46" filterUnits="userSpaceOnUse" color-interpolation-filters="sRGB">
<feFlood flood-opacity="0" result="BackgroundImageFix"/>
<feBlend mode="normal" in="SourceGraphic" in2="BackgroundImageFix" result="shape"/>
<feTurbulence type="fractalNoise" baseFrequency="2 2" stitchTiles="stitch" numOctaves="3" result="noise" seed="7994" />
<feColorMatrix in="noise" type="luminanceToAlpha" result="alphaNoise" />
<feComponentTransfer in="alphaNoise" result="coloredNoise1">
<feFuncA type="discrete" tableValues="1 1 1 1 1 1 1 1 1 1 1 1 1 1 1 1 1 1 1 1 1 1 1 1 1 1 1 1 1 1 1 1 1 1 1 1 1 1 1 1 1 1 1 1 1 1 1 1 1 1 1 0 0 0 0 0 0 0 0 0 0 0 0 0 0 0 0 0 0 0 0 0 0 0 0 0 0 0 0 0 0 0 0 0 0 0 0 0 0 0 0 0 0 0 0 0 0 0 0 0 "/>
</feComponentTransfer>
<feComposite operator="in" in2="shape" in="coloredNoise1" result="noise1Clipped" />
<feFlood flood-color="rgba(0, 0, 0, 0.25)" result="color1Flood" />
<feComposite operator="in" in2="noise1Clipped" in="color1Flood" result="color1" />
<feMerge result="effect1_noise_1611_1005">
<feMergeNode in="shape" />
<feMergeNode in="color1" />
</feMerge>
</filter>
</defs>
</svg>
